<?xml version="1.0" encoding="UTF-8" standalone="no"?>
<svg
   width="922"
   height="422"
   overflow="hidden"
   version="1.1"
   id="svg67"
   sodipodi:docname="concept.svg"
   inkscape:version="1.3 (0e150ed6c4, 2023-07-21)"
   xmlns:inkscape="http://www.inkscape.org/namespaces/inkscape"
   xmlns:sodipodi="http://sodipodi.sourceforge.net/DTD/sodipodi-0.dtd"
   xmlns="http://www.w3.org/2000/svg"
   xmlns:svg="http://www.w3.org/2000/svg">
  <defs
     id="defs67" />
  <sodipodi:namedview
     id="namedview67"
     pagecolor="#ffffff"
     bordercolor="#000000"
     borderopacity="0.25"
     inkscape:showpageshadow="2"
     inkscape:pageopacity="0.0"
     inkscape:pagecheckerboard="0"
     inkscape:deskcolor="#d1d1d1"
     showgrid="false"
     inkscape:zoom="2.2114967"
     inkscape:cx="461"
     inkscape:cy="210.94311"
     inkscape:window-width="2560"
     inkscape:window-height="1377"
     inkscape:window-x="-8"
     inkscape:window-y="-8"
     inkscape:window-maximized="1"
     inkscape:current-layer="g67" />
  <g
     transform="translate(-9 -156)"
     id="g67">
    <path
       d="M433 259.5C433 204.548 477.548 160 532.5 160 587.452 160 632 204.548 632 259.5 632 314.452 587.452 359 532.5 359 477.548 359 433 314.452 433 259.5Z"
       stroke="#C00000"
       stroke-width="6"
       stroke-miterlimit="8"
       fill="#FFFF00"
       fill-rule="evenodd"
       id="path1" />
    <text
       font-family="Malgun Gothic,Malgun Gothic_MSFontService,sans-serif"
       font-weight="700"
       font-size="21"
       transform="translate(493.929 242)"
       id="text1">R4tings</text>
    <text
       font-family="Malgun Gothic,Malgun Gothic_MSFontService,sans-serif"
       font-weight="700"
       font-size="21"
       transform="translate(459.229 268)"
       id="text2">Recommender</text>
    <text
       font-family="Malgun Gothic,Malgun Gothic_MSFontService,sans-serif"
       font-weight="700"
       font-size="21"
       transform="translate(479.316 293)"
       id="text3">Workbook</text>
    <path
       d="M463 474.5C463 419.548 507.548 375 562.5 375 617.452 375 662 419.548 662 474.5 662 529.452 617.452 574 562.5 574 507.548 574 463 529.452 463 474.5Z"
       stroke="#FFFF00"
       stroke-width="6"
       stroke-miterlimit="8"
       fill="#C00000"
       fill-rule="evenodd"
       id="path3" />
    <text
       fill="#FFFFFF"
       font-family="Malgun Gothic,Malgun Gothic_MSFontService,sans-serif"
       font-weight="700"
       font-size="21"
       transform="translate(524.045 457)"
       id="text4">R4tings</text>
    <text
       fill="#FFFFFF"
       font-family="Malgun Gothic,Malgun Gothic_MSFontService,sans-serif"
       font-weight="700"
       font-size="21"
       transform="translate(489.345 483)"
       id="text5">Recommender</text>
    <text
       fill="#FFFFFF"
       font-family="Malgun Gothic,Malgun Gothic_MSFontService,sans-serif"
       font-weight="700"
       font-size="21"
       transform="translate(514.799 508)"
       id="text6">Examples</text>
    <path
       d="M250 393.5C250 338.548 294.548 294 349.5 294 404.452 294 449 338.548 449 393.5 449 448.452 404.452 493 349.5 493 294.548 493 250 448.452 250 393.5Z"
       stroke="#239ED5"
       stroke-width="6"
       stroke-miterlimit="8"
       fill="#00B0F0"
       fill-rule="evenodd"
       id="path6" />
    <text
       fill="#FFFFFF"
       font-family="Malgun Gothic,Malgun Gothic_MSFontService,sans-serif"
       font-weight="700"
       font-size="21"
       transform="translate(311.593 389)"
       id="text7">R4tings</text>
    <text
       fill="#FFFFFF"
       font-family="Malgun Gothic,Malgun Gothic_MSFontService,sans-serif"
       font-weight="700"
       font-size="21"
       transform="translate(276.893 415)"
       id="text8">Recommender</text>
    <path
       d="M296.228 405C284.421 311.591 349.453 226.439 441.48 214.807 533.507 203.176 617.68 269.47 629.486 362.879 641.292 456.288 576.261 541.44 484.234 553.071 392.207 564.703 308.034 498.409 296.228 405Z"
       stroke="#7F7F7F"
       stroke-width="1.33333"
       stroke-linejoin="round"
       stroke-miterlimit="10"
       stroke-dasharray="1.33333 1.33333"
       stroke-opacity="0.501961"
       fill="none"
       fill-rule="evenodd"
       id="path8" />
    <path
       d="M366.811 238.081 382.718 233.519 373.102 246.986Z"
       stroke="#239ED5"
       stroke-width="1.33333"
       stroke-miterlimit="8"
       stroke-opacity="0.501961"
       fill="#00B0F0"
       fill-rule="evenodd"
       id="path9" />
    <path
       d="M634.437 361.758 631.083 378.162 623.779 363.096Z"
       stroke="#C00000"
       stroke-width="1.33333"
       stroke-miterlimit="8"
       stroke-opacity="0.501961"
       fill="#FFFF00"
       fill-rule="evenodd"
       id="path10" />
    <path
       d="M385.376 542.134 375.767 528.663 391.671 533.232Z"
       stroke="#FFFF00"
       stroke-width="1.33333"
       stroke-miterlimit="8"
       stroke-opacity="0.501961"
       fill="#C00000"
       fill-rule="evenodd"
       id="path11" />
    <path
       d="M89.5001 521.5 252.5 522.5"
       stroke="#239ED5"
       stroke-width="1.33333"
       stroke-linejoin="round"
       stroke-miterlimit="10"
       fill="none"
       fill-rule="evenodd"
       id="path12" />
    <rect
       x="80"
       y="517"
       width="8"
       height="7"
       stroke="#239ED5"
       stroke-width="2"
       stroke-miterlimit="8"
       fill="#239ED5"
       id="rect12" />
    <path
       d="M0 0 55 77"
       stroke="#239ED5"
       stroke-width="1.33333"
       stroke-linejoin="round"
       stroke-miterlimit="10"
       fill="none"
       fill-rule="evenodd"
       transform="matrix(-1 0 0 1 306.5 445.5)"
       id="path13" />
    <path
       d="M302 446.5C302 444.567 303.567 443 305.5 443 307.433 443 309 444.567 309 446.5 309 448.433 307.433 450 305.5 450 303.567 450 302 448.433 302 446.5Z"
       stroke="#239ED5"
       stroke-width="2"
       stroke-linejoin="round"
       stroke-miterlimit="10"
       fill="#239ED5"
       fill-rule="evenodd"
       id="path14" />
    <text
       font-family="'Malgun Gothic', 'Malgun Gothic_MSFontService', sans-serif"
       font-weight="400"
       font-size="13px"
       transform="translate(19.5927,444)"
       id="text14">추천 시스템을 만들기 위한 <tspan
   style="font-weight:bold"
   id="tspan69">핵심 코드</tspan>는</text>
    <text
       font-family="'Malgun Gothic', 'Malgun Gothic_MSFontService', sans-serif"
       font-weight="400"
       font-size="13px"
       transform="translate(19.5927,464)"
       id="text19">추천 처리 과정을 단계별로 분해하여 내부</text>
    <text
       font-family="'Malgun Gothic', 'Malgun Gothic_MSFontService', sans-serif"
       font-weight="400"
       font-size="13px"
       transform="translate(19.5927,485)"
       id="text24">흐름을 쉽게 이해하고 필요에 맞게 </text>
    <text
       font-family="'Malgun Gothic', 'Malgun Gothic_MSFontService', sans-serif"
       font-weight="400"
       font-size="13px"
       transform="translate(19.5927,506)"
       id="text29">수정 및 확장할 수 있게 구현되었습니다</text>
    <path
       d="M0 0 141 1"
       stroke="#C00000"
       stroke-width="1.33333"
       stroke-linejoin="round"
       stroke-miterlimit="10"
       fill="none"
       fill-rule="evenodd"
       transform="matrix(1 0 0 -1 669.5 202.5)"
       id="path33" />
    <path
       d="M0 0 163 1"
       stroke="#FFFF00"
       stroke-width="1.33333"
       stroke-linejoin="round"
       stroke-miterlimit="10"
       fill="none"
       fill-rule="evenodd"
       transform="matrix(1 0 0 -1 668.5 525.5)"
       id="path34" />
    <rect
       x="826"
       y="521"
       width="7"
       height="7"
       stroke="#FFFF00"
       stroke-width="2"
       stroke-miterlimit="8"
       fill="#FFFF00"
       id="rect34" />
    <rect
       x="810"
       y="198"
       width="8"
       height="7"
       stroke="#C00000"
       stroke-width="2"
       stroke-miterlimit="8"
       fill="#C00000"
       id="rect35" />
    <path
       d="M623.5 437.5 668.5 525.5"
       stroke="#FFFF00"
       stroke-width="1.33333"
       stroke-linejoin="round"
       stroke-miterlimit="10"
       fill="none"
       fill-rule="evenodd"
       id="path35" />
    <path
       d="M0 0 67 92"
       stroke="#C00000"
       stroke-width="1.33333"
       stroke-linejoin="round"
       stroke-miterlimit="10"
       fill="none"
       fill-rule="evenodd"
       transform="matrix(1 0 0 -1 603.5 294.5)"
       id="path36" />
    <path
       d="M601 292.5C601 290.567 602.567 289 604.5 289 606.433 289 608 290.567 608 292.5 608 294.433 606.433 296 604.5 296 602.567 296 601 294.433 601 292.5Z"
       stroke="#C00000"
       stroke-width="2"
       stroke-linejoin="round"
       stroke-miterlimit="10"
       fill="#C00000"
       fill-rule="evenodd"
       id="path37" />
    <text
       font-family="'Malgun Gothic', 'Malgun Gothic_MSFontService', sans-serif"
       font-weight="400"
       font-size="13px"
       transform="translate(677.185,467)"
       id="text37">워크북에 포함된 <tspan
   style="font-weight:bold"
   id="tspan71">예제 코드</tspan>는 다양한</text>
    <text
       font-family="'Malgun Gothic', 'Malgun Gothic_MSFontService', sans-serif"
       font-weight="400"
       font-size="13px"
       transform="translate(677.185,487)"
       id="text41">추천 기법들이 구현된 핵심 코드를</text>
    <text
       font-family="'Malgun Gothic', 'Malgun Gothic_MSFontService', sans-serif"
       font-weight="400"
       font-size="13px"
       transform="translate(677.185,508)"
       id="text45"><tspan
         sodipodi:role="line"
         id="tspan68"
         x="0"
         y="0">어떻게 사용하는지를 보여줍니다.</tspan></text>
    <path
       d="M619 435.5C619 433.567 620.791 432 623 432 625.209 432 627 433.567 627 435.5 627 437.433 625.209 439 623 439 620.791 439 619 437.433 619 435.5Z"
       stroke="#FFFF00"
       stroke-width="2"
       stroke-linejoin="round"
       stroke-miterlimit="10"
       fill="#FFFF00"
       fill-rule="evenodd"
       id="path48" />
    <text
       font-family="'Malgun Gothic', 'Malgun Gothic_MSFontService', sans-serif"
       font-weight="400"
       font-size="13px"
       transform="translate(677.185,228)"
       id="text49">핵심 코드를 <tspan
   style="font-weight:bold"
   id="tspan70">워크북</tspan> 형식으로</text>
    <text
       font-family="'Malgun Gothic', 'Malgun Gothic_MSFontService', sans-serif"
       font-weight="400"
       font-size="13px"
       transform="translate(677.185,244)"
       id="text52">구성하여 단계별로 직접 계산하고 </text>
    <text
       font-family="'Malgun Gothic', 'Malgun Gothic_MSFontService', sans-serif"
       font-weight="400"
       font-size="13px"
       transform="translate(677.185,260)"
       id="text56">예제 코드의 실행 결과와 비교하는</text>
    <text
       font-family="'Malgun Gothic', 'Malgun Gothic_MSFontService', sans-serif"
       font-weight="400"
       font-size="13px"
       transform="translate(677.185,276)"
       id="text60">과정을 통해 추천 처리 과정을 </text>
    <text
       font-family="'Malgun Gothic', 'Malgun Gothic_MSFontService', sans-serif"
       font-weight="400"
       font-size="13px"
       transform="translate(677.185,292)"
       id="text65">학습하고 이해합니다. </text>
  </g>
</svg>
